# xmcd
#
# Track frame offsets:
# 150
# 14917
# 26415
# 40542
# 69801
# 84351
# 95891
# 109461
# 122916
#
# Disc length: 2104 seconds
#
#
# Revision: 0
# Processed by: cddbd v1.5.2PL0 Copyright (c) Steve Scherf et al.
# Submitted via: FreeRIP 2.951 
#
DISCID=72083609
DTITLE=Postcard Writer - Postcard Writer
DYEAR=2006
DGENRE=Alternative
TTITLE0=envy
TTITLE1=diamond ring
TTITLE2=old suitcase
TTITLE3=sleepin' poetry
TTITLE4=wonderful place to be
TTITLE5=loosin' mind
TTITLE6=morning warning
TTITLE7=if you don't love me
TTITLE8=first time here
EXTD=
EXTT0=
EXTT1=
EXTT2=
EXTT3=
EXTT4=
EXTT5=
EXTT6=
EXTT7=
EXTT8=
PLAYORDER=
